<svg xmlns="http://www.w3.org/2000/svg" width="48" height="48" viewBox="0 0 48 48" fill="none">
  <defs>
    <linearGradient id="bg" x1="0" y1="0" x2="48" y2="48" gradientUnits="userSpaceOnUse">
      <stop offset="0%" stop-color="#4f46e5"/>
      <stop offset="100%" stop-color="#7c3aed"/>
    </linearGradient>
    <linearGradient id="spark" x1="24" y1="4" x2="24" y2="18" gradientUnits="userSpaceOnUse">
      <stop offset="0%" stop-color="#fbbf24"/>
      <stop offset="100%" stop-color="#f59e0b"/>
    </linearGradient>
  </defs>
  <!-- Rounded square background -->
  <rect width="48" height="48" rx="12" fill="url(#bg)"/>
  <!-- Open book -->
  <path d="M10 34V18a1 1 0 0 1 .553-.894C13.5 15.5 18 15 24 18c6-3 10.5-2.5 13.447-1.106A1 1 0 0 1 38 18v16a1 1 0 0 1-1.368.929C33.5 33.5 29 33 24 36c-5-3-9.5-2.5-12.632-1.071A1 1 0 0 1 10 34z" fill="white" fill-opacity="0.2"/>
  <path d="M24 18v18" stroke="white" stroke-width="1.5" stroke-linecap="round"/>
  <path d="M12 19c3-1.5 6.5-1.8 12 1v16c-5.5-2.8-9-2.5-12-1V19z" fill="white" fill-opacity="0.85"/>
  <path d="M36 19c-3-1.5-6.5-1.8-12 1v16c5.5-2.8 9-2.5 12-1V19z" fill="white" fill-opacity="0.65"/>
  <!-- AI sparkle / star -->
  <path d="M24 5l1.8 4.5L30 11l-4.2 1.5L24 17l-1.8-4.5L18 11l4.2-1.5L24 5z" fill="url(#spark)"/>
  <!-- Small accent sparkles -->
  <circle cx="17" cy="8" r="1" fill="#fbbf24" opacity="0.7"/>
  <circle cx="31" cy="7" r="0.8" fill="#fbbf24" opacity="0.5"/>
  <circle cx="33" cy="13" r="0.6" fill="#fbbf24" opacity="0.6"/>
</svg>